<svg width="19" height="19" viewBox="0 0 19 19" fill="none" xmlns="http://www.w3.org/2000/svg">
<g id="star-half-fill">
<path id="Vector" d="M16.982 7.87248C16.9377 7.73823 16.8222 7.63848 16.6812 7.61748H16.679L12.2097 6.96423L10.2237 2.94123C10.1825 2.70723 10.0362 2.51448 9.83598 2.41098L9.83223 2.40873C9.73548 2.35998 9.62148 2.33148 9.50073 2.33148C9.20748 2.33148 8.95398 2.49948 8.83023 2.74473L8.82798 2.74923L6.91623 6.62148L2.64198 7.24623C2.27673 7.30098 2.00073 7.61223 2.00073 7.98873C2.00073 8.19948 2.08773 8.38923 2.22723 8.52573L5.32023 11.5385L4.59048 15.7932C4.58373 15.8315 4.57998 15.875 4.57998 15.92C4.57998 16.334 4.91598 16.67 5.32998 16.67C5.45748 16.67 5.57823 16.6377 5.68323 16.5815L5.67948 16.5837L9.85098 14.39C9.92448 14.348 9.98673 14.2962 10.0392 14.2362L10.04 14.2355L13.8732 16.2515C13.9235 16.2785 13.9842 16.2942 14.048 16.2942C14.255 16.2942 14.423 16.1262 14.423 15.9192C14.423 15.8967 14.4207 15.875 14.417 15.854V15.8562L13.6535 11.4065L16.8867 8.25648C16.9565 8.18823 17 8.09298 17 7.98798C17 7.94673 16.9932 7.90698 16.9812 7.87023L16.982 7.87323V7.87248ZM12.9882 11.0067C12.9177 11.075 12.8742 11.171 12.8742 11.276C12.8742 11.2977 12.8765 11.3195 12.8795 11.3405V11.3382L13.5477 15.233L10.19 13.4667L9.82323 13.0077L9.49923 4.77423L9.68373 3.55248L11.624 7.47123C11.678 7.57998 11.7815 7.65798 11.9037 7.67598H11.906L15.8187 8.24748L12.9882 11.0067Z" fill="#FFD200"/>
</g>
</svg>
